<svg width="38" height="38" viewBox="0 0 38 38" fill="none" xmlns="http://www.w3.org/2000/svg">
<rect x="0.5" y="0.0654297" width="37" height="37" rx="18.5" fill="#F53838" fill-opacity="0.1"/>
<path d="M29 22.7554C29 26.3954 26.83 28.5654 23.19 28.5654H22C21.45 28.5654 21 28.1154 21 27.5654V21.7954C21 21.5254 21.22 21.2954 21.49 21.2954L23.25 21.2654C23.39 21.2554 23.51 21.1554 23.54 21.0154L23.89 19.1054C23.92 18.9254 23.78 18.7554 23.59 18.7554L21.46 18.7854C21.18 18.7854 20.96 18.5654 20.95 18.2954L20.91 15.8454C20.91 15.6854 21.04 15.5454 21.21 15.5454L23.61 15.5054C23.78 15.5054 23.91 15.3754 23.91 15.2054L23.87 12.8054C23.87 12.6354 23.74 12.5054 23.57 12.5054L20.87 12.5454C19.21 12.5754 17.89 13.9354 17.92 15.5954L17.97 18.3454C17.98 18.6254 17.76 18.8454 17.48 18.8554L16.28 18.8754C16.11 18.8754 15.98 19.0054 15.98 19.1754L16.01 21.0754C16.01 21.2454 16.14 21.3754 16.31 21.3754L17.51 21.3554C17.79 21.3554 18.01 21.5754 18.02 21.8454L18.11 27.5454C18.12 28.1054 17.67 28.5654 17.11 28.5654H14.81C11.17 28.5654 9 26.3954 9 22.7454V14.3754C9 10.7354 11.17 8.56543 14.81 8.56543H23.19C26.83 8.56543 29 10.7354 29 14.3754V22.7554Z" fill="#F53838"/>
</svg>
