<svg width="16" height="16" viewBox="0 0 16 16" fill="none" xmlns="http://www.w3.org/2000/svg">
<path d="M9.3 1.62472L10.62 4.26472C10.8 4.62472 11.28 4.98472 11.68 5.04472L14.07 5.44472C15.6 5.70472 15.96 6.80472 14.86 7.90472L13 9.77472C12.69 10.0847 12.51 10.6947 12.61 11.1347L13.14 13.4447C13.56 15.2647 12.59 15.9747 10.98 15.0247L8.74 13.6947C8.33 13.4547 7.67 13.4547 7.26 13.6947L5.01 15.0147C3.4 15.9647 2.43 15.2547 2.85 13.4347L3.38 11.1247C3.48 10.6947 3.3 10.0847 2.99 9.76472L1.14 7.91472C0.0400038 6.81472 0.400004 5.70472 1.93 5.45472L4.32 5.05472C4.72 4.98472 5.2 4.63472 5.38 4.27472L6.7 1.63472C7.41 0.19472 8.59 0.19472 9.3 1.62472Z" fill="#F3CC40"/>
</svg>
