<svg width="38" height="38" viewBox="0 0 38 38" fill="none" xmlns="http://www.w3.org/2000/svg">
<rect x="0.5" y="0.0654297" width="37" height="37" rx="18.5" fill="#F53838" fill-opacity="0.1"/>
<path d="M28.98 17.9754C28.64 12.1754 23.37 7.70539 17.3 8.70539C13.12 9.39539 9.76999 12.7854 9.11999 16.9654C8.73999 19.3854 9.24001 21.6754 10.33 23.5654L9.43999 26.8754C9.23999 27.6254 9.92998 28.3054 10.67 28.0954L13.93 27.1954C15.41 28.0654 17.14 28.5654 18.99 28.5654C24.63 28.5654 29.31 23.5954 28.98 17.9754ZM23.88 22.2854C23.79 22.4654 23.68 22.6354 23.54 22.7954C23.29 23.0654 23.02 23.2654 22.72 23.3854C22.42 23.5154 22.09 23.5754 21.74 23.5754C21.23 23.5754 20.68 23.4554 20.11 23.2054C19.53 22.9554 18.96 22.6254 18.39 22.2154C17.81 21.7954 17.27 21.3254 16.75 20.8154C16.23 20.2954 15.77 19.7454 15.35 19.1754C14.94 18.6054 14.61 18.0354 14.37 17.4654C14.13 16.8954 14.01 16.3454 14.01 15.8254C14.01 15.4854 14.07 15.1554 14.19 14.8554C14.31 14.5454 14.5 14.2654 14.77 14.0154C15.09 13.6954 15.44 13.5454 15.81 13.5454C15.95 13.5454 16.09 13.5754 16.22 13.6354C16.35 13.6954 16.47 13.7854 16.56 13.9154L17.72 15.5554C17.81 15.6854 17.88 15.7954 17.92 15.9054C17.97 16.0154 17.99 16.1154 17.99 16.2154C17.99 16.3354 17.95 16.4554 17.88 16.5754C17.81 16.6954 17.72 16.8154 17.6 16.9354L17.22 17.3354C17.16 17.3954 17.14 17.4554 17.14 17.5354C17.14 17.5754 17.15 17.6154 17.16 17.6554C17.18 17.6954 17.19 17.7254 17.2 17.7554C17.29 17.9254 17.45 18.1354 17.67 18.3954C17.9 18.6554 18.14 18.9254 18.4 19.1854C18.67 19.4554 18.93 19.6954 19.2 19.9254C19.46 20.1454 19.68 20.2954 19.85 20.3854C19.88 20.3954 19.91 20.4154 19.94 20.4254C19.98 20.4454 20.02 20.4454 20.07 20.4454C20.16 20.4454 20.22 20.4154 20.28 20.3554L20.66 19.9754C20.79 19.8454 20.91 19.7554 21.02 19.6954C21.14 19.6254 21.25 19.5854 21.38 19.5854C21.48 19.5854 21.58 19.6054 21.69 19.6554C21.8 19.7054 21.92 19.7654 22.04 19.8554L23.7 21.0354C23.83 21.1254 23.92 21.2354 23.98 21.3554C24.03 21.4854 24.06 21.6054 24.06 21.7454C24 21.9154 23.96 22.1054 23.88 22.2854Z" fill="#F53838"/>
</svg>
