<svg width="38" height="38" viewBox="0 0 38 38" fill="none" xmlns="http://www.w3.org/2000/svg">
<rect x="0.5" y="0.0654297" width="37" height="37" rx="18.5" fill="#F53838" fill-opacity="0.1"/>
<path d="M24 10.5654H14C11 10.5654 9 12.5654 9 15.5654V21.5654C9 24.5654 11 26.5654 14 26.5654H24C27 26.5654 29 24.5654 29 21.5654V15.5654C29 12.5654 27 10.5654 24 10.5654ZM20.89 19.5954L18.42 21.0754C17.42 21.6754 16.6 21.2154 16.6 20.0454V17.0754C16.6 15.9054 17.42 15.4454 18.42 16.0454L20.89 17.5254C21.84 18.1054 21.84 19.0254 20.89 19.5954Z" fill="#F53838"/>
</svg>
